<?xml version="1.0" standalone="no"?>
<!DOCTYPE svg PUBLIC "-//W3C//DTD SVG 20010904//EN"
 "http://www.w3.org/TR/2001/REC-SVG-20010904/DTD/svg10.dtd">
<svg version="1.0" xmlns="http://www.w3.org/2000/svg"
 width="167.000000pt" height="167.000000pt" viewBox="0 0 167.000000 167.000000"
 preserveAspectRatio="xMidYMid meet">

<g transform="translate(0.000000,167.000000) scale(0.100000,-0.100000)"
fill="#000000" stroke="none">
<path d="M693 1656 c-333 -64 -576 -287 -664 -611 -31 -113 -31 -307 0 -420
81 -298 299 -516 596 -596 114 -31 308 -31 420 0 298 81 515 298 596 596 31
113 31 307 0 420 -81 299 -302 519 -596 595 -103 27 -258 34 -352 16z m10
-552 c61 -31 127 -110 112 -134 -13 -20 -39 -9 -73 31 -33 38 -99 78 -129 79
-10 0 -13 -57 -13 -251 l0 -251 28 7 c93 23 151 85 177 188 l7 27 -101 0 c-94
0 -101 1 -101 20 0 19 7 20 126 20 l126 0 -7 -52 c-19 -148 -117 -247 -243
-248 -95 0 -163 43 -209 134 -79 156 -25 364 112 427 51 23 144 25 188 3z
m497 -4 c40 -21 66 -53 55 -70 -10 -16 -41 -12 -56 7 -8 9 -29 22 -48 30 -29
12 -36 12 -48 0 -12 -12 -9 -21 23 -68 120 -173 144 -213 154 -250 21 -77 -14
-154 -84 -188 -50 -25 -149 -28 -199 -7 -41 17 -87 63 -87 87 0 25 41 25 57 0
27 -43 134 -73 133 -37 -1 6 -36 61 -80 121 -113 156 -131 220 -87 305 42 84
173 118 267 70z"/>
</g>
</svg>
