<?xml version="1.0" ?><svg enable-background="new 0 0 32 32" version="1.1" viewBox="0 0 32 32" xml:space="preserve" xmlns="http://www.w3.org/2000/svg" xmlns:xlink="http://www.w3.org/1999/xlink"><g id="Layer_4_copy_4"><g><g><g><polygon fill="#FFFFFF" points="3,24.206 3,0.5 29,0.5 29,24.206 16,31.428     "/><g><path d="M28.5,1v22.912L16,30.856L3.5,23.912V1H16H28.5 M29.5,0H16H2.5v24.5L16,32l13.5-7.5V0L29.5,0z" fill="#0F8EDB"/></g></g></g><g><polygon points="16,2.323 4.82,2.323 4.82,23.161 16,29.372 27.18,23.161 27.18,2.445    "/></g></g><path d="M13.949,22.123h3.267v-7.906h2.179l0.289-2.724h-2.468l0.003-1.364c0-0.71,0.068-1.091,1.087-1.091h1.362   V6.312h-2.18c-2.618,0-3.54,1.322-3.54,3.544v1.636h-1.632v2.725h1.632V22.123z" fill="#FFFFFF"/></g></svg>