<?xml version="1.0" ?><svg enable-background="new 0 0 32 32" version="1.1" viewBox="0 0 32 32" xml:space="preserve" xmlns="http://www.w3.org/2000/svg" xmlns:xlink="http://www.w3.org/1999/xlink"><g id="Layer_4_copy_4"><g><g><g><polygon fill="#FFFFFF" points="3,24.206 3,0.5 29,0.5 29,24.206 16,31.427     "/><g><path d="M28.5,1v22.912L16,30.856L3.5,23.912V1H16H28.5 M29.5,0H16H2.5v24.5L16,32l13.5-7.5V0L29.5,0z" fill="#0F8EDB"/></g></g></g><g><polygon points="16,2.323 4.82,2.323 4.82,23.161 16,29.372 27.18,23.161 27.18,2.445    "/></g></g><path d="M21.555,6.593h-11.11c-1.046,0-1.852,0.806-1.852,1.852v11.11c0,1.045,0.806,1.852,1.852,1.852h11.11   c1.045,0,1.852-0.806,1.852-1.852V8.445C23.407,7.399,22.6,6.593,21.555,6.593z M16.011,11.09c1.643,0,2.974,1.29,2.974,2.882   c0,1.591-1.331,2.882-2.974,2.882c-1.642,0-2.973-1.291-2.973-2.882C13.038,12.38,14.37,11.09,16.011,11.09z M21.555,19.092   c0,0.325-0.139,0.463-0.463,0.463H10.908c-0.324,0-0.463-0.138-0.463-0.463v-6.481l1.154,0.251   c-0.124,0.403-0.191,0.829-0.191,1.271c0,2.462,2.062,4.46,4.603,4.46c2.542,0,4.603-1.997,4.603-4.46   c0-0.442-0.067-0.868-0.191-1.271l1.132-0.251V19.092z M21.555,10.76c0,0.256-0.207,0.463-0.463,0.463H19.24   c-0.256,0-0.463-0.207-0.463-0.463V8.908c0-0.256,0.207-0.463,0.463-0.463h1.852c0.256,0,0.463,0.207,0.463,0.463V10.76z" fill="#FFFFFF"/></g></svg>