<?xml version="1.0" ?><svg enable-background="new 0 0 32 32" version="1.1" viewBox="0 0 32 32" xml:space="preserve" xmlns="http://www.w3.org/2000/svg" xmlns:xlink="http://www.w3.org/1999/xlink"><g id="Layer_4_copy_3"><g><g><g><polygon fill="#FFFFFF" points="3,24.206 3,0.5 29,0.5 29,24.206 16,31.427     "/><g><path d="M28.5,1v22.912L16,30.856L3.5,23.912V1H16H28.5 M29.5,0H16H2.5v24.5L16,32l13.5-7.5V0L29.5,0z"/></g></g></g><g><polygon fill="#0F8EDB" points="16,2.323 4.82,2.323 4.82,23.161 16,29.372 27.18,23.161 27.18,2.445    "/></g></g><path clip-rule="evenodd" d="M16.1,5.87c-4.017,0-7.192,3.368-7.192,7.432   c0,4.246,5.584,10.578,7.192,10.578c1.409,0,6.993-6.332,6.993-10.578C23.092,9.238,19.917,5.87,16.1,5.87z M16.123,17.164   c-2.508,0-4.44-1.913-4.44-4.152c0-1.037,0.351-1.962,0.927-2.702c0.008,0.92,0.763,1.664,1.695,1.664   c0.937,0,1.696-0.752,1.696-1.679c0-0.681-0.412-1.265-1.001-1.528c0.36-0.089,0.731-0.151,1.124-0.151   c2.261,0,4.194,1.913,4.194,4.396C20.317,15.251,18.384,17.164,16.123,17.164z" fill="#FFFFFF" fill-rule="evenodd"/></g></svg>