<?xml version="1.0" standalone="no"?>
<!DOCTYPE svg PUBLIC "-//W3C//DTD SVG 20010904//EN"
 "http://www.w3.org/TR/2001/REC-SVG-20010904/DTD/svg10.dtd">
<svg version="1.0" xmlns="http://www.w3.org/2000/svg"
 width="438.000000pt" height="125.000000pt" viewBox="0 0 438.000000 125.000000"
 preserveAspectRatio="xMidYMid meet">

<g transform="translate(0.000000,125.000000) scale(0.100000,-0.100000)"
fill="#000000" stroke="none">
<path d="M522 1239 c-341 -57 -576 -393 -508 -729 78 -381 458 -598 824 -470
195 69 355 252 397 455 90 430 -280 816 -713 744z m418 -433 c0 -2 -9 -25 -20
-51 l-20 -47 -118 3 -117 4 -3 -142 -3 -143 -29 0 -29 0 -3 141 -3 141 -89 0
c-110 0 -131 -15 -131 -91 0 -68 23 -93 84 -89 42 3 46 5 46 28 0 22 -4 25
-35 22 -54 -4 -63 7 -45 51 l15 37 65 0 65 0 0 -120 0 -120 -80 0 c-94 0 -121
13 -150 71 -46 90 -31 231 31 283 l31 26 269 0 c148 0 269 -2 269 -4z m-30
-156 c45 -24 51 -152 8 -197 -20 -21 -30 -23 -130 -23 -59 0 -108 2 -108 4 0
2 9 24 20 49 l21 46 82 3 c71 3 82 6 85 22 6 28 -15 36 -95 36 -63 0 -74 3
-87 22 -31 44 -23 48 85 48 55 0 109 -4 119 -10z"/>
</g>
</svg>
