<?xml version="1.0" standalone="no"?>
<!DOCTYPE svg PUBLIC "-//W3C//DTD SVG 20010904//EN"
 "http://www.w3.org/TR/2001/REC-SVG-20010904/DTD/svg10.dtd">
<svg version="1.0" xmlns="http://www.w3.org/2000/svg"
 width="172.000000pt" height="172.000000pt" viewBox="0 0 172.000000 172.000000"
 preserveAspectRatio="xMidYMid meet">

<g transform="translate(0.000000,172.000000) scale(0.100000,-0.100000)"
fill="#000000" stroke="none">
<path d="M690 1705 c-282 -56 -534 -270 -635 -540 -123 -325 -40 -685 213
-927 165 -157 365 -238 592 -238 227 0 427 81 592 238 257 245 337 606 209
938 -83 216 -277 407 -496 489 -142 54 -329 69 -475 40z m507 -589 c-3 -8 -11
-34 -17 -58 -19 -70 -20 -70 -150 -68 -63 2 -121 2 -127 1 -10 -1 -13 -48 -13
-201 l0 -200 -35 0 -35 0 0 200 0 200 -105 0 c-102 0 -105 -1 -122 -27 -28
-42 -30 -159 -4 -200 19 -31 24 -33 76 -33 l55 0 0 40 0 40 -56 0 c-62 0 -59
-7 -29 80 12 35 12 35 78 38 82 4 79 11 75 -188 l-3 -145 -88 -3 -89 -3 -33
35 c-101 108 -95 402 11 485 26 20 37 21 321 21 253 0 294 -2 290 -14z m-23
-229 c44 -44 45 -196 2 -260 l-22 -32 -122 -3 c-67 -1 -122 1 -121 5 0 4 10
35 22 68 l22 60 93 3 93 3 -3 37 -3 37 -84 5 c-75 4 -86 8 -102 30 -9 14 -20
35 -24 48 -6 22 -6 22 110 22 108 0 118 -2 139 -23z"/>
</g>
</svg>
